<svg xmlns="http://www.w3.org/2000/svg" viewBox="0 0 126 127"><defs><style>.cls-1{fill:#e69b05;}.cls-1,.cls-2{fill-rule:evenodd;}.cls-2{fill:#fa0;}</style></defs><title>Asset 2</title><g id="Layer_2" data-name="Layer 2"><g id="Layer_1-2" data-name="Layer 1"><polygon class="cls-1" points="0 20 0 60 40 80 40 40 0 20"/><polygon class="cls-1" points="40 40 80 20 80 60 40 80 40 40"/><polygon class="cls-2" points="0 20 40 0 80 20 40 40 0 20"/><polygon class="cls-1" points="46 43 46 83 86 103 86 63 46 43"/><polygon class="cls-2" points="86 63 126 43 126 83 86 103 86 63"/><polygon class="cls-2" points="46 43 86 23 126 43 86 63 46 43"/><polygon class="cls-2" points="0 67 40 47 80 67 40 87 0 67"/><polygon class="cls-1" points="0 67 0 107 40 127 40 87 0 67"/><polygon class="cls-2" points="40 87 80 67 80 107 40 127 40 87"/></g></g></svg>